<?xml version="1.0" standalone="no"?>
<!DOCTYPE svg PUBLIC "-//W3C//DTD SVG 20010904//EN"
 "http://www.w3.org/TR/2001/REC-SVG-20010904/DTD/svg10.dtd">
<svg version="1.0" xmlns="http://www.w3.org/2000/svg"
 width="358.000000pt" height="358.000000pt" viewBox="0 0 358.000000 358.000000"
 preserveAspectRatio="xMidYMid meet">
  <g transform="translate(0.000000,358.000000) scale(0.100000,-0.100000)" fill="#ffffff" stroke="none">
    <path d="M365 2498 c-33 -18 -85 -71 -101 -103 -9 -16 -18 -54 -21 -82 l-6
    -53 132 0 c86 0 130 3 126 10 -3 6 -3 19 0 30 6 19 16 20 288 20 l282 0 40 68
    40 67 3 -98 3 -97 129 0 130 0 0 30 0 30 310 0 310 0 0 95 0 95 -822 0 c-580
    -1 -829 -4 -843 -12z"/>
    <path d="M2362 2389 c-41 -66 -72 -123 -69 -125 2 -2 124 -3 270 -2 l267 3
    -74 120 -73 120 -124 3 -124 2 -73 -121z"/>
    <path d="M3010 2235 c0 -24 2 -25 63 -25 34 1 72 6 85 13 l23 13 -26 12 c-14
    7 -53 12 -85 12 -57 0 -60 -1 -60 -25z"/>
    <path d="M257 2191 c8 -31 69 -97 107 -115 28 -13 72 -16 264 -16 222 0 231
    -1 237 -20 3 -11 3 -24 0 -30 -4 -6 -100 -10 -258 -10 l-253 0 -57 -94 c-31
    -52 -57 -96 -57 -98 0 -2 107 -2 238 -1 130 1 301 2 379 3 l143 0 41 37 c104
    94 113 237 21 336 l-26 27 -392 0 c-383 0 -392 0 -387 -19z"/>
    <path d="M1150 2010 l0 -200 732 2 732 3 48 80 c27 44 52 81 56 82 4 1 57 -81
    117 -182 l110 -184 139 -1 c113 0 137 2 133 14 -3 7 -69 119 -148 247 -78 129
    -156 257 -173 286 l-31 52 -139 1 c-106 0 -137 -3 -133 -12 3 -7 30 -53 60
    -103 l56 -90 -141 -3 c-77 -1 -143 -1 -145 2 -2 2 19 41 47 87 28 45 55 91 61
    101 9 17 2 18 -134 18 l-145 0 -108 -179 -109 -179 -3 74 -3 74 -309 0 -310 0
    0 30 0 30 215 0 215 0 0 75 0 75 -345 0 -345 0 0 -200z"/>
  </g>
</svg>
